<?xml version="1.0" standalone="no"?>
<!DOCTYPE svg PUBLIC "-//W3C//DTD SVG 20010904//EN"
 "http://www.w3.org/TR/2001/REC-SVG-20010904/DTD/svg10.dtd">
<svg version="1.0" xmlns="http://www.w3.org/2000/svg"
 width="225.000000pt" height="225.000000pt" viewBox="0 0 225.000000 225.000000"
 preserveAspectRatio="xMidYMid meet">

<g transform="translate(0.000000,225.000000) scale(0.100000,-0.100000)"
fill="#000000" stroke="none">
<path d="M920 2233 c-87 -14 -192 -63 -268 -122 -59 -47 -141 -159 -161 -219
-11 -34 -20 -42 -45 -47 -76 -16 -181 -78 -252 -149 -119 -119 -171 -256 -161
-426 6 -116 33 -199 93 -287 43 -62 44 -64 33 -111 -16 -70 -14 -201 6 -268
55 -191 185 -327 371 -390 67 -22 91 -25 185 -23 l108 3 44 -41 c165 -153 409
-184 626 -81 93 44 205 158 251 255 31 65 38 72 75 83 120 36 233 119 303 224
68 101 97 196 96 316 0 136 -32 233 -107 332 l-35 45 15 54 c32 120 1 303 -72
419 -114 180 -336 288 -536 261 l-55 -7 -53 47 c-117 104 -305 158 -461 132z
m224 -159 c50 -18 126 -62 126 -73 0 -5 -100 -66 -222 -136 -123 -70 -231
-134 -240 -143 -16 -14 -18 -43 -18 -334 0 -175 -2 -318 -4 -318 -3 0 -46 24
-98 54 l-93 54 -3 258 c-2 164 1 281 8 319 31 161 169 301 332 335 53 11 157
3 212 -16z m529 -174 c76 -24 170 -89 209 -146 59 -86 96 -210 83 -284 l-6
-38 -233 134 c-148 85 -243 134 -261 134 -18 0 -120 -53 -287 -150 -143 -82
-261 -150 -264 -150 -3 0 -3 50 -2 111 l3 110 234 135 c129 74 255 141 280
149 68 20 168 18 244 -5z m-1223 -487 c0 -234 2 -279 15 -293 9 -10 132 -84
275 -166 143 -82 259 -151 260 -154 0 -3 -43 -29 -95 -58 l-94 -54 -232 134
c-254 146 -315 194 -361 289 -15 30 -32 85 -39 122 -23 127 23 269 120 364 42
42 121 92 144 93 4 0 7 -125 7 -277z m1225 17 c230 -132 294 -180 343 -257 98
-155 77 -371 -49 -508 -38 -41 -130 -105 -151 -105 -5 0 -8 124 -8 275 0 273
0 276 -22 298 -13 12 -137 87 -275 167 -139 80 -252 148 -250 153 3 11 170
106 183 104 6 -1 109 -58 229 -127z m-438 -113 l108 -63 3 -127 3 -126 -85
-50 c-152 -90 -126 -88 -248 -17 l-107 61 -1 130 0 130 108 62 c59 35 108 63
109 63 1 0 50 -28 110 -63z m391 -225 l33 -16 -3 -306 -3 -305 -32 -68 c-101
-212 -351 -303 -557 -201 -56 28 -92 52 -85 57 2 3 108 64 234 136 127 73 236
139 243 148 9 13 12 95 12 330 l0 314 63 -36 c34 -20 77 -44 95 -53z m-278
-350 l0 -107 -237 -137 c-272 -156 -318 -173 -436 -165 -210 14 -371 179 -385
392 -4 65 -2 85 8 85 7 0 113 -58 237 -130 145 -84 234 -130 253 -130 19 0
117 51 287 150 142 82 261 150 266 150 4 0 7 -48 7 -108z"/>
</g>
</svg>
